<?xml version="1.0" encoding="UTF-8"?>
<svg width="105px" height="10px" viewBox="0 0 105 10" version="1.1" xmlns="http://www.w3.org/2000/svg" xmlns:xlink="http://www.w3.org/1999/xlink">
    <!-- Generator: Sketch 42 (36781) - http://www.bohemiancoding.com/sketch -->
    <title>Page 1</title>
    <desc>Created with Sketch.</desc>
    <defs>
        <polygon id="path-1" points="28.67085 0.0107 28.67085 9.8972 -4.83333333e-05 9.8972 -4.83333333e-05 0.0107 28.67085 0.0107"></polygon>
        <polygon id="path-3" points="28.67085 0.0107 28.67085 9.8972 -4.83333333e-05 9.8972 -4.83333333e-05 0.0107 28.67085 0.0107"></polygon>
        <polygon id="path-5" points="28.67085 0.0107 28.67085 9.8972 -4.83333333e-05 9.8972 -4.83333333e-05 0.0107 28.67085 0.0107"></polygon>
        <polygon id="path-7" points="28.67085 0.0107 28.67085 9.8972 -4.83333333e-05 9.8972 -4.83333333e-05 0.0107 28.67085 0.0107"></polygon>
    </defs>
    <g id="Page-1" stroke="none" stroke-width="1" fill="none" fill-rule="evenodd">
        <g id="Desktop-HD" transform="translate(-250.000000, -867.000000)">
            <g id="Page-1" transform="translate(250.000000, 867.000000)">
                <g id="Group-5">
                    <g id="Group-8">
                        <mask id="mask-2" fill="white">
                            <use xlink:href="#path-1"></use>
                        </mask>
                        <g id="Clip-7"></g>
                        <path d="M8.123335,0.0107 C5.57471833,0.0107 3.02610167,1.3287 0.477968333,3.8007 C0.158968333,4.1302 -4.83333333e-05,4.4597 -4.83333333e-05,4.9537 C-4.83333333e-05,5.2837 0.159451667,5.7777 0.477968333,5.9427 C1.11500167,6.6017 2.07055167,6.6017 2.70806833,5.9427 C4.61916833,4.1302 6.37125167,3.1412 8.123335,3.1412 C9.87590167,3.1412 11.627985,4.1302 13.2205683,5.9427 C15.4506683,8.5792 17.999285,9.8972 20.5474183,9.8972 C23.255535,9.8972 25.8041517,8.7437 28.1932683,6.1072 C28.8303017,5.4482 28.8303017,4.4597 28.1932683,3.8007 C27.5557517,3.1412 26.6002017,3.1412 25.9631683,3.8007 C24.051585,5.6127 22.2995017,6.6017 20.5474183,6.6017 C18.795335,6.6017 17.2022683,5.6127 15.450185,3.8007 C13.0610683,1.3287 10.6719517,0.0107 8.123335,0.0107" id="Fill-6" fill="#000000" mask="url(#mask-2)"></path>
                    </g>
                    <g id="Group-8" transform="translate(25.000000, 0.000000)">
                        <mask id="mask-4" fill="white">
                            <use xlink:href="#path-3"></use>
                        </mask>
                        <g id="Clip-7"></g>
                        <path d="M8.123335,0.0107 C5.57471833,0.0107 3.02610167,1.3287 0.477968333,3.8007 C0.158968333,4.1302 -4.83333333e-05,4.4597 -4.83333333e-05,4.9537 C-4.83333333e-05,5.2837 0.159451667,5.7777 0.477968333,5.9427 C1.11500167,6.6017 2.07055167,6.6017 2.70806833,5.9427 C4.61916833,4.1302 6.37125167,3.1412 8.123335,3.1412 C9.87590167,3.1412 11.627985,4.1302 13.2205683,5.9427 C15.4506683,8.5792 17.999285,9.8972 20.5474183,9.8972 C23.255535,9.8972 25.8041517,8.7437 28.1932683,6.1072 C28.8303017,5.4482 28.8303017,4.4597 28.1932683,3.8007 C27.5557517,3.1412 26.6002017,3.1412 25.9631683,3.8007 C24.051585,5.6127 22.2995017,6.6017 20.5474183,6.6017 C18.795335,6.6017 17.2022683,5.6127 15.450185,3.8007 C13.0610683,1.3287 10.6719517,0.0107 8.123335,0.0107" id="Fill-6" fill="#000000" mask="url(#mask-4)"></path>
                    </g>
                    <g id="Group-8" transform="translate(51.000000, 0.000000)">
                        <mask id="mask-6" fill="white">
                            <use xlink:href="#path-5"></use>
                        </mask>
                        <g id="Clip-7"></g>
                        <path d="M8.123335,0.0107 C5.57471833,0.0107 3.02610167,1.3287 0.477968333,3.8007 C0.158968333,4.1302 -4.83333333e-05,4.4597 -4.83333333e-05,4.9537 C-4.83333333e-05,5.2837 0.159451667,5.7777 0.477968333,5.9427 C1.11500167,6.6017 2.07055167,6.6017 2.70806833,5.9427 C4.61916833,4.1302 6.37125167,3.1412 8.123335,3.1412 C9.87590167,3.1412 11.627985,4.1302 13.2205683,5.9427 C15.4506683,8.5792 17.999285,9.8972 20.5474183,9.8972 C23.255535,9.8972 25.8041517,8.7437 28.1932683,6.1072 C28.8303017,5.4482 28.8303017,4.4597 28.1932683,3.8007 C27.5557517,3.1412 26.6002017,3.1412 25.9631683,3.8007 C24.051585,5.6127 22.2995017,6.6017 20.5474183,6.6017 C18.795335,6.6017 17.2022683,5.6127 15.450185,3.8007 C13.0610683,1.3287 10.6719517,0.0107 8.123335,0.0107" id="Fill-6" fill="#000000" mask="url(#mask-6)"></path>
                    </g>
                    <g id="Group-8" transform="translate(76.000000, 0.000000)">
                        <mask id="mask-8" fill="white">
                            <use xlink:href="#path-7"></use>
                        </mask>
                        <g id="Clip-7"></g>
                        <path d="M8.123335,0.0107 C5.57471833,0.0107 3.02610167,1.3287 0.477968333,3.8007 C0.158968333,4.1302 -4.83333333e-05,4.4597 -4.83333333e-05,4.9537 C-4.83333333e-05,5.2837 0.159451667,5.7777 0.477968333,5.9427 C1.11500167,6.6017 2.07055167,6.6017 2.70806833,5.9427 C4.61916833,4.1302 6.37125167,3.1412 8.123335,3.1412 C9.87590167,3.1412 11.627985,4.1302 13.2205683,5.9427 C15.4506683,8.5792 17.999285,9.8972 20.5474183,9.8972 C23.255535,9.8972 25.8041517,8.7437 28.1932683,6.1072 C28.8303017,5.4482 28.8303017,4.4597 28.1932683,3.8007 C27.5557517,3.1412 26.6002017,3.1412 25.9631683,3.8007 C24.051585,5.6127 22.2995017,6.6017 20.5474183,6.6017 C18.795335,6.6017 17.2022683,5.6127 15.450185,3.8007 C13.0610683,1.3287 10.6719517,0.0107 8.123335,0.0107" id="Fill-6" fill="#000000" mask="url(#mask-8)"></path>
                    </g>
                </g>
            </g>
        </g>
    </g>
</svg>