<?xml version="1.0" encoding="UTF-8"?>
<svg width="219px" height="53px" viewBox="0 0 219 53" version="1.1" xmlns="http://www.w3.org/2000/svg" xmlns:xlink="http://www.w3.org/1999/xlink">
    <!-- Generator: Sketch 42 (36781) - http://www.bohemiancoding.com/sketch -->
    <title>wavy</title>
    <desc>Created with Sketch.</desc>
    <defs>
        <polygon id="path-1" points="59.3191 1.42108547e-14 59.3191 19.773 0 19.773 0 0 59.3191 0"></polygon>
        <polygon id="path-3" points="59.3191 1.42108547e-14 59.3191 19.773 0 19.773 0 0 59.3191 0"></polygon>
        <polygon id="path-5" points="59.3191 1.42108547e-14 59.3191 19.773 0 19.773 0 0 59.3191 0"></polygon>
        <polygon id="path-7" points="59.3191 1.42108547e-14 59.3191 19.773 0 19.773 0 0 59.3191 0"></polygon>
    </defs>
    <g id="Page-1" stroke="none" stroke-width="1" fill="none" fill-rule="evenodd">
        <g id="Desktop-HD" transform="translate(-1027.000000, -2404.000000)">
            <g id="wavy" transform="translate(1027.000000, 2403.000000)">
                <path d="M31.966,41.58 C27.023,36.637 22.079,34 16.807,34 C11.534,34 6.261,36.637 0.988,41.58 C0.329,42.239 0,42.898 0,43.887 C0,44.875 0.329,45.535 0.988,46.193 C2.306,47.512 4.284,47.512 5.602,46.193 C9.557,42.569 13.182,40.591 16.807,40.591 C20.432,40.591 24.057,42.569 27.353,46.193 C31.966,51.137 37.239,53.773 42.512,53.773 C47.784,53.773 53.387,51.467 58.33,46.194 C59.648,44.876 59.648,42.898 58.33,41.58 C57.012,40.262 55.034,40.262 53.716,41.58 C49.761,45.205 46.136,47.182 42.511,47.182 C38.886,47.182 35.262,45.205 31.966,41.58" id="Fill-1" fill="#2D2F20"></path>
                <g id="Group-8" transform="translate(0.000000, 0.978600)">
                    <mask id="mask-2" fill="white">
                        <use xlink:href="#path-1"></use>
                    </mask>
                    <g id="Clip-7"></g>
                    <path d="M16.807,0 C11.534,0 6.261,2.636 0.989,7.58 C0.329,8.239 0,8.898 0,9.886 C0,10.546 0.33,11.534 0.989,11.864 C2.307,13.182 4.284,13.182 5.603,11.864 C9.557,8.239 13.182,6.261 16.807,6.261 C20.433,6.261 24.058,8.239 27.353,11.864 C31.967,17.137 37.24,19.773 42.512,19.773 C48.115,19.773 53.388,17.466 58.331,12.193 C59.649,10.875 59.649,8.898 58.331,7.58 C57.012,6.261 55.035,6.261 53.717,7.58 C49.762,11.204 46.137,13.182 42.512,13.182 C38.887,13.182 35.591,11.204 31.966,7.58 C27.023,2.636 22.08,0 16.807,0" id="Fill-6" fill="#2D2F20" mask="url(#mask-2)"></path>
                </g>
                <path d="M84.966,41.58 C80.023,36.637 75.079,34 69.807,34 C64.534,34 59.261,36.637 53.988,41.58 C53.329,42.239 53,42.898 53,43.887 C53,44.875 53.329,45.535 53.988,46.193 C55.306,47.512 57.284,47.512 58.602,46.193 C62.557,42.569 66.182,40.591 69.807,40.591 C73.432,40.591 77.057,42.569 80.353,46.193 C84.966,51.137 90.239,53.773 95.512,53.773 C100.784,53.773 106.387,51.467 111.33,46.194 C112.648,44.876 112.648,42.898 111.33,41.58 C110.012,40.262 108.034,40.262 106.716,41.58 C102.761,45.205 99.136,47.182 95.511,47.182 C91.886,47.182 88.262,45.205 84.966,41.58" id="Fill-1" fill="#2D2F20"></path>
                <g id="Group-8" transform="translate(53.000000, 0.978600)">
                    <mask id="mask-4" fill="white">
                        <use xlink:href="#path-3"></use>
                    </mask>
                    <g id="Clip-7"></g>
                    <path d="M16.807,0 C11.534,0 6.261,2.636 0.989,7.58 C0.329,8.239 0,8.898 0,9.886 C0,10.546 0.33,11.534 0.989,11.864 C2.307,13.182 4.284,13.182 5.603,11.864 C9.557,8.239 13.182,6.261 16.807,6.261 C20.433,6.261 24.058,8.239 27.353,11.864 C31.967,17.137 37.24,19.773 42.512,19.773 C48.115,19.773 53.388,17.466 58.331,12.193 C59.649,10.875 59.649,8.898 58.331,7.58 C57.012,6.261 55.035,6.261 53.717,7.58 C49.762,11.204 46.137,13.182 42.512,13.182 C38.887,13.182 35.591,11.204 31.966,7.58 C27.023,2.636 22.08,0 16.807,0" id="Fill-6" fill="#2D2F20" mask="url(#mask-4)"></path>
                </g>
                <path d="M137.966,41.58 C133.023,36.637 128.079,34 122.807,34 C117.534,34 112.261,36.637 106.988,41.58 C106.329,42.239 106,42.898 106,43.887 C106,44.875 106.329,45.535 106.988,46.193 C108.306,47.512 110.284,47.512 111.602,46.193 C115.557,42.569 119.182,40.591 122.807,40.591 C126.432,40.591 130.057,42.569 133.353,46.193 C137.966,51.137 143.239,53.773 148.512,53.773 C153.784,53.773 159.387,51.467 164.33,46.194 C165.648,44.876 165.648,42.898 164.33,41.58 C163.012,40.262 161.034,40.262 159.716,41.58 C155.761,45.205 152.136,47.182 148.511,47.182 C144.886,47.182 141.262,45.205 137.966,41.58" id="Fill-1" fill="#2D2F20"></path>
                <g id="Group-8" transform="translate(106.000000, 0.978600)">
                    <mask id="mask-6" fill="white">
                        <use xlink:href="#path-5"></use>
                    </mask>
                    <g id="Clip-7"></g>
                    <path d="M0.989,7.58 C0.329,8.239 0,8.898 0,9.886 C0,10.546 0.33,11.534 0.989,11.864 C2.307,13.182 4.284,13.182 5.603,11.864 C9.557,8.239 13.182,6.261 16.807,6.261 C20.433,6.261 24.058,8.239 27.353,11.864 C31.967,17.137 37.24,19.773 42.512,19.773 C48.115,19.773 53.388,17.466 58.331,12.193 C59.649,10.875 59.649,8.898 58.331,7.58 C57.012,6.261 55.035,6.261 53.717,7.58 C49.762,11.204 46.137,13.182 42.512,13.182 C38.887,13.182 35.591,11.204 31.966,7.58 C27.023,2.636 22.08,0 16.807,0 C11.534,0 6.261,2.636 0.989,7.58 Z" id="Fill-6" fill="#2D2F20" mask="url(#mask-6)"></path>
                </g>
                <path d="M190.966,41.58 C186.023,36.637 181.079,34 175.807,34 C170.534,34 165.261,36.637 159.988,41.58 C159.329,42.239 159,42.898 159,43.887 C159,44.875 159.329,45.535 159.988,46.193 C161.306,47.512 163.284,47.512 164.602,46.193 C168.557,42.569 172.182,40.591 175.807,40.591 C179.432,40.591 183.057,42.569 186.353,46.193 C190.966,51.137 196.239,53.773 201.512,53.773 C206.784,53.773 212.387,51.467 217.33,46.194 C218.648,44.876 218.648,42.898 217.33,41.58 C216.012,40.262 214.034,40.262 212.716,41.58 C208.761,45.205 205.136,47.182 201.511,47.182 C197.886,47.182 194.262,45.205 190.966,41.58" id="Fill-1" fill="#2D2F20"></path>
                <g id="Group-8" transform="translate(159.000000, 0.978600)">
                    <mask id="mask-8" fill="white">
                        <use xlink:href="#path-7"></use>
                    </mask>
                    <g id="Clip-7"></g>
                    <path d="M16.807,0 C11.534,0 6.261,2.636 0.989,7.58 C0.329,8.239 0,8.898 0,9.886 C0,10.546 0.33,11.534 0.989,11.864 C2.307,13.182 4.284,13.182 5.603,11.864 C9.557,8.239 13.182,6.261 16.807,6.261 C20.433,6.261 24.058,8.239 27.353,11.864 C31.967,17.137 37.24,19.773 42.512,19.773 C48.115,19.773 53.388,17.466 58.331,12.193 C59.649,10.875 59.649,8.898 58.331,7.58 C57.012,6.261 55.035,6.261 53.717,7.58 C49.762,11.204 46.137,13.182 42.512,13.182 C38.887,13.182 35.591,11.204 31.966,7.58 C27.023,2.636 22.08,0 16.807,0" id="Fill-6" fill="#2D2F20" mask="url(#mask-8)"></path>
                </g>
            </g>
        </g>
    </g>
</svg>