<?xml version="1.0" encoding="UTF-8"?>
<svg width="30px" height="30px" viewBox="0 0 30 30" version="1.1" xmlns="http://www.w3.org/2000/svg" xmlns:xlink="http://www.w3.org/1999/xlink">
    <!-- Generator: Sketch 42 (36781) - http://www.bohemiancoding.com/sketch -->
    <title>Page 1</title>
    <desc>Created with Sketch.</desc>
    <defs></defs>
    <g id="Page-1" stroke="none" stroke-width="1" fill="none" fill-rule="evenodd">
        <g id="Desktop-HD" transform="translate(-559.000000, -3515.000000)" fill="#FFFFFF">
            <g id="Group-11" transform="translate(310.000000, 3199.000000)">
                <g id="Group-9" transform="translate(213.000000, 284.000000)">
                    <g id="Page-1" transform="translate(36.000000, 32.000000)">
                        <polygon id="Fill-1" points="12 14.2874845 15.7776168 13 17 16.7127459 13.2221568 18"></polygon>
                        <polygon id="Fill-2" points="12 14.2874845 15.7776168 13 17 16.7127459 13.2221568 18"></polygon>
                        <g id="Group-5">
                            <path d="M23.3674286,17.656381 L21.4388571,18.2992381 L22.1055238,20.2992381 C22.3674286,21.1087619 21.9388571,21.9897143 21.1293333,22.251619 C20.9626667,22.2992381 20.7721905,22.3468571 20.6055238,22.3230476 C19.9864762,22.2992381 19.3912381,21.8944762 19.1769524,21.2754286 L18.5102857,19.2754286 L14.5340952,20.6087619 L15.2007619,22.6087619 C15.4626667,23.4182857 15.0340952,24.2992381 14.2245714,24.5611429 C14.0579048,24.6087619 13.8674286,24.656381 13.7007619,24.6325714 C13.0817143,24.6087619 12.4864762,24.204 12.2721905,23.5849524 L11.6055238,21.5849524 L9.67695238,22.2278095 C9.51028571,22.2754286 9.31980952,22.3230476 9.15314286,22.2992381 C8.53409524,22.2754286 7.93885714,21.8706667 7.72457143,21.251619 C7.46266667,20.4420952 7.8912381,19.5611429 8.7007619,19.2992381 L10.6293333,18.656381 L9.34361905,14.8230476 L7.41504762,15.4659048 C7.24838095,15.5135238 7.05790476,15.5611429 6.8912381,15.5373333 C6.27219048,15.5135238 5.67695238,15.1087619 5.46266667,14.4897143 C5.2007619,13.6801905 5.62933333,12.7992381 6.43885714,12.5373333 L8.36742857,11.8944762 L7.7007619,9.89447619 C7.43885714,9.08495238 7.86742857,8.204 8.67695238,7.94209524 C9.48647619,7.68019048 10.3674286,8.1087619 10.6293333,8.91828571 L11.296,10.9182857 L15.2721905,9.58495238 L14.6055238,7.58495238 C14.343619,6.77542857 14.7721905,5.89447619 15.5817143,5.63257143 C16.3912381,5.37066667 17.2721905,5.7992381 17.5340952,6.6087619 L18.2007619,8.6087619 L20.1293333,7.96590476 C20.9388571,7.704 21.8198095,8.13257143 22.0817143,8.94209524 C22.343619,9.75161905 21.9150476,10.6325714 21.1055238,10.8944762 L19.1769524,11.5373333 L20.4626667,15.3706667 L22.3912381,14.7278095 C23.2007619,14.4659048 24.0817143,14.8944762 24.343619,15.704 C24.6055238,16.5135238 24.1769524,17.3944762 23.3674286,17.656381 M28.5340952,11.0135238 C25.4626667,0.775428571 21.0340952,-1.60552381 10.796,1.46590476 C0.557904762,4.53733333 -1.82304762,8.96590476 1.24838095,19.204 C4.31980952,29.4420952 8.74838095,31.8230476 18.9864762,28.751619 C29.2245714,25.6801905 31.6055238,21.251619 28.5340952,11.0135238" id="Fill-3"></path>
                        </g>
                    </g>
                </g>
            </g>
        </g>
    </g>
</svg>